<svg xmlns="http://www.w3.org/2000/svg" width="28" height="26" viewBox="0 0 28 26"><defs><style>.a{fill:#914d42;}</style></defs><path class="a" d="M28.986,204.636A7.546,7.546,0,0,0,22,206.261a7.547,7.547,0,0,0-6.984-1.625A1.373,1.373,0,0,0,14,205.963v9.227a1.372,1.372,0,0,0,.523,1.081,1.354,1.354,0,0,0,1.161.258,5.642,5.642,0,0,1,3.011.1,5.509,5.509,0,0,1,1.573.8,2.939,2.939,0,0,0,3.465,0,5.49,5.49,0,0,1,1.572-.8,5.627,5.627,0,0,1,3.013-.1A1.372,1.372,0,0,0,30,215.19v-9.227A1.373,1.373,0,0,0,28.986,204.636Zm-9.681,10.093a7.52,7.52,0,0,0-2.29-.356A7.742,7.742,0,0,0,16,214.44v-7.977a5.515,5.515,0,0,1,5,1.616v7.465A7.474,7.474,0,0,0,19.305,214.729ZM28,214.44a7.567,7.567,0,0,0-3.305.289,7.474,7.474,0,0,0-1.695.815v-7.465a5.512,5.512,0,0,1,5-1.616Z" transform="translate(-2 -193.185)"/><path class="a" d="M-51,218h-6.7a1.317,1.317,0,0,1-1.3-1.332V197.332A1.317,1.317,0,0,1-57.7,196H-42.3a1.317,1.317,0,0,1,1.3,1.332V202a1,1,0,0,0,1,1,1,1,0,0,0,1-1v-4.668A3.319,3.319,0,0,0-42.3,194H-57.7a3.319,3.319,0,0,0-3.3,3.332v19.336A3.319,3.319,0,0,0-57.7,220H-51a1,1,0,0,0,1-1A1,1,0,0,0-51,218Z" transform="translate(61 -194)"/><path class="a" d="M-44,200H-56a1,1,0,0,0-1,1,1,1,0,0,0,1,1h12a1,1,0,0,0,1-1A1,1,0,0,0-44,200Z" transform="translate(61 -194)"/><path class="a" d="M-56,212a1,1,0,0,0-1,1,1,1,0,0,0,1,1h4a1,1,0,0,0,1-1,1,1,0,0,0-1-1Z" transform="translate(61 -194)"/><path class="a" d="M-56,212a1,1,0,0,0-1,1,1,1,0,0,0,1,1h4a1,1,0,0,0,1-1,1,1,0,0,0-1-1Z" transform="translate(61 -200)"/></svg>