<svg xmlns="http://www.w3.org/2000/svg" width="28" height="23.001" viewBox="0 0 28 23.001"><defs><style>.a{fill:#3d42e9;}</style></defs><path class="a" d="M29.364,71.9A9.052,9.052,0,0,0,23.019,69,8.926,8.926,0,0,0,16,72.271,9.007,9.007,0,0,0,8.981,69a9.053,9.053,0,0,0-6.314,2.868A2.377,2.377,0,0,0,2,73.517V90a1,1,0,0,0,1.6.8A8.966,8.966,0,0,1,8.93,89h.063a9.225,9.225,0,0,1,6.3,2.7,1,1,0,0,0,1.424,0,9.225,9.225,0,0,1,6.3-2.7A9.041,9.041,0,0,1,28.4,90.8,1,1,0,0,0,30,90V73.516A2.334,2.334,0,0,0,29.364,71.9ZM28,88.2A10.739,10.739,0,0,0,22.993,87,10.976,10.976,0,0,0,16,89.641,10.976,10.976,0,0,0,9.007,87H8.93A10.8,10.8,0,0,0,4,88.2V73.517a.386.386,0,0,1,.112-.266A7.061,7.061,0,0,1,9.019,71,6.967,6.967,0,0,1,15,74.305V84a1,1,0,0,0,2,0V74.305A6.924,6.924,0,0,1,22.981,71a7.059,7.059,0,0,1,4.932,2.278.348.348,0,0,1,.087.238Z" transform="translate(-2 -68.999)"/></svg>