<svg xmlns="http://www.w3.org/2000/svg" width="20" height="19.039" viewBox="0 0 20 19.039"><defs><style>.a{fill:#007bff;}</style></defs><g transform="translate(-2385 -1819)"><g transform="translate(2385 1819)"><g transform="translate(0 14.481)"><path class="a" d="M3911.443,2362.95h-2.453a1.054,1.054,0,0,1-1.052-1.052v-2.453a1.054,1.054,0,0,1,1.052-1.052h2.453a1.054,1.054,0,0,1,1.052,1.052v2.453A1.054,1.054,0,0,1,3911.443,2362.95Zm-2.453-3.7a.194.194,0,0,0-.193.193v2.453a.193.193,0,0,0,.193.193h2.453a.193.193,0,0,0,.193-.193v-2.453a.194.194,0,0,0-.193-.193Z" transform="translate(-3907.938 -2358.392)"/></g><g transform="translate(7.721 14.481)"><path class="a" d="M4265.42,2362.95h-2.453a1.054,1.054,0,0,1-1.052-1.052v-2.453a1.054,1.054,0,0,1,1.052-1.052h2.453a1.054,1.054,0,0,1,1.053,1.052v2.453A1.054,1.054,0,0,1,4265.42,2362.95Zm-2.453-3.7a.193.193,0,0,0-.193.193v2.453a.193.193,0,0,0,.193.193h2.453a.193.193,0,0,0,.193-.193v-2.453a.193.193,0,0,0-.193-.193Z" transform="translate(-4261.916 -2358.392)"/></g><g transform="translate(15.442 14.481)"><path class="a" d="M4619.4,2362.95h-2.453a1.054,1.054,0,0,1-1.053-1.052v-2.453a1.054,1.054,0,0,1,1.053-1.052h2.453a1.054,1.054,0,0,1,1.052,1.052v2.453A1.054,1.054,0,0,1,4619.4,2362.95Zm-2.453-3.7a.194.194,0,0,0-.193.193v2.453a.194.194,0,0,0,.193.193h2.453a.194.194,0,0,0,.193-.193v-2.453a.194.194,0,0,0-.193-.193Z" transform="translate(-4615.893 -2358.392)"/></g><g transform="translate(3.861 7.314)"><path class="a" d="M4088.432,2034.443h-2.452a1.054,1.054,0,0,1-1.053-1.052v-2.452a1.054,1.054,0,0,1,1.053-1.052h2.452a1.054,1.054,0,0,1,1.053,1.052v2.452A1.054,1.054,0,0,1,4088.432,2034.443Zm-2.452-3.7a.194.194,0,0,0-.193.193v2.452a.194.194,0,0,0,.193.193h2.452a.193.193,0,0,0,.193-.193v-2.452a.193.193,0,0,0-.193-.193Z" transform="translate(-4084.927 -2029.885)"/></g><g transform="translate(11.582 7.314)"><path class="a" d="M4442.408,2034.443h-2.453a1.054,1.054,0,0,1-1.052-1.052v-2.452a1.054,1.054,0,0,1,1.052-1.052h2.453a1.054,1.054,0,0,1,1.053,1.052v2.452A1.054,1.054,0,0,1,4442.408,2034.443Zm-2.453-3.7a.194.194,0,0,0-.193.193v2.452a.194.194,0,0,0,.193.193h2.453a.194.194,0,0,0,.193-.193v-2.452a.194.194,0,0,0-.193-.193Z" transform="translate(-4438.903 -2029.885)"/></g><g transform="translate(7.721 0)"><path class="a" d="M4265.42,1699.225h-2.453a1.054,1.054,0,0,1-1.052-1.053v-2.452a1.054,1.054,0,0,1,1.052-1.052h2.453a1.054,1.054,0,0,1,1.053,1.052v2.452A1.054,1.054,0,0,1,4265.42,1699.225Zm-2.453-3.7a.193.193,0,0,0-.193.193v2.452a.193.193,0,0,0,.193.193h2.453a.193.193,0,0,0,.193-.193v-2.452a.193.193,0,0,0-.193-.193Z" transform="translate(-4261.916 -1694.667)"/></g><g transform="translate(5.739 3.755)"><path class="a" d="M4171.422,1871.162a.43.43,0,0,1-.43-.43v-2.167h3.8v-1.336a.43.43,0,0,1,.86,0v2.2h-3.8v1.308A.43.43,0,0,1,4171.422,1871.162Z" transform="translate(-4170.992 -1866.799)"/></g><g transform="translate(1.849 11.077)"><path class="a" d="M3994.434,2206.726a.43.43,0,0,1-.43-.43v-2.167h3.8v-1.083a.43.43,0,0,1,.859,0v1.942h-3.8v1.308A.429.429,0,0,1,3994.434,2206.726Z" transform="translate(-3994.004 -2202.617)"/></g><g transform="translate(4.806 12.58)"><path class="a" d="M4133.168,2274.944a.43.43,0,0,1-.43-.43v-1.322h-4.3a.43.43,0,0,1,0-.859h5.155v2.182A.43.43,0,0,1,4133.168,2274.944Z" transform="translate(-4128.013 -2272.333)"/></g><g transform="translate(9.6 11.077)"><path class="a" d="M4348.411,2206.726a.43.43,0,0,1-.43-.43v-2.167h3.8v-1.083a.429.429,0,1,1,.859,0v1.942h-3.8v1.308A.43.43,0,0,1,4348.411,2206.726Z" transform="translate(-4347.981 -2202.617)"/></g><g transform="translate(12.566 12.58)"><path class="a" d="M4487.143,2274.944a.43.43,0,0,1-.43-.43v-1.322h-4.3a.43.43,0,0,1,0-.859h5.156v2.182A.43.43,0,0,1,4487.143,2274.944Z" transform="translate(-4481.988 -2272.333)"/></g><g transform="translate(8.67 5.524)"><path class="a" d="M4310.155,1950.953a.43.43,0,0,1-.43-.43V1949.2h-4.3a.43.43,0,1,1,0-.859h5.155v2.182A.43.43,0,0,1,4310.155,1950.953Z" transform="translate(-4305 -1948.342)"/></g></g></g></svg>