<svg xmlns="http://www.w3.org/2000/svg" width="28" height="24" viewBox="0 0 28 24"><defs><style>.a{fill:#007bff;}</style></defs><path class="a" d="M-36.277,68H-59.723A2.279,2.279,0,0,0-62,70.277V83.724A2.279,2.279,0,0,0-59.723,86H-50a1,1,0,0,0,1-1,1,1,0,0,0-1-1h-9.723A.277.277,0,0,1-60,83.724V70.277A.277.277,0,0,1-59.723,70h23.446a.277.277,0,0,1,.277.277V83.724a.277.277,0,0,1-.277.276,1,1,0,0,0-1,1,1,1,0,0,0,1,1A2.279,2.279,0,0,0-34,83.724V70.277A2.279,2.279,0,0,0-36.277,68Z" transform="translate(62 -68)"/><path class="a" d="M-43,74a5.006,5.006,0,0,0-5,5,4.952,4.952,0,0,0,1.005,2.975c0,.009-.005.016-.005.025v9a1,1,0,0,0,.528.882,1,1,0,0,0,1.027-.05L-43,90.2l2.445,1.63A1.006,1.006,0,0,0-40,92a1,1,0,0,0,.472-.118A1,1,0,0,0-39,91V82c0-.009-.005-.016-.005-.025A4.952,4.952,0,0,0-38,79,5.006,5.006,0,0,0-43,74Zm0,2a3,3,0,0,1,3,3,3,3,0,0,1-3,3,3,3,0,0,1-3-3A3,3,0,0,1-43,76Zm.555,12.168a1,1,0,0,0-1.11,0L-45,89.132V83.576A4.95,4.95,0,0,0-43,84a4.95,4.95,0,0,0,2-.424v5.556Z" transform="translate(62 -68)"/><path class="a" d="M-51,72h-6a1,1,0,0,0-1,1,1,1,0,0,0,1,1h6a1,1,0,0,0,1-1A1,1,0,0,0-51,72Z" transform="translate(62 -68)"/><path class="a" d="M-51,76h-6a1,1,0,0,0-1,1,1,1,0,0,0,1,1h6a1,1,0,0,0,1-1A1,1,0,0,0-51,76Z" transform="translate(62 -68)"/></svg>