<svg xmlns="http://www.w3.org/2000/svg" xmlns:xlink="http://www.w3.org/1999/xlink" width="183" height="232" viewBox="0 0 183 232">
  <defs>
    <filter id="Rectangle_94" x="82" y="-12" width="116" height="262" filterUnits="userSpaceOnUse">
      <feOffset dy="3" input="SourceAlpha"/>
      <feGaussianBlur stdDeviation="5" result="blur"/>
      <feFlood flood-opacity="0.102"/>
      <feComposite operator="in" in2="blur"/>
      <feComposite in="SourceGraphic"/>
    </filter>
    <clipPath id="clip-path">
      <g transform="matrix(1, 0, 0, 1, 0, 0)" filter="url(#Rectangle_94)">
        <rect id="Rectangle_94-2" data-name="Rectangle 94" width="86" height="232" rx="40" transform="translate(-0.46)" fill="#fff"/>
      </g>
    </clipPath>
  </defs>
  <g id="Group_555" data-name="Group 555" transform="translate(-13.539)">
    <g id="Rectangle_43" data-name="Rectangle 43" transform="translate(142.523 202) rotate(45)" fill="none" stroke="#c2e0ff" stroke-width="1">
      <rect width="6" height="6" rx="3" stroke="none"/>
      <rect x="0.5" y="0.5" width="5" height="5" rx="2.5" fill="none"/>
    </g>
    <g id="Rectangle_44" data-name="Rectangle 44" transform="translate(127.673 206.95) rotate(45)" fill="none" stroke="#c2e0ff" stroke-width="1">
      <rect width="4" height="4" rx="2" stroke="none"/>
      <rect x="0.5" y="0.5" width="3" height="3" rx="1.5" fill="none"/>
    </g>
    <g id="Rectangle_45" data-name="Rectangle 45" transform="translate(34.262 16.571) rotate(45)" fill="none" stroke="#c2e0ff" stroke-width="1">
      <rect width="4" height="4" rx="2" stroke="none"/>
      <rect x="0.5" y="0.5" width="3" height="3" rx="1.5" fill="none"/>
    </g>
    <rect id="Rectangle_47" data-name="Rectangle 47" width="13" height="13" rx="6.5" transform="translate(13.539 125)" fill="#c2e0ff"/>
    <g id="Group_431" data-name="Group 431" transform="translate(118 29) rotate(180)">
      <circle id="Ellipse_14" data-name="Ellipse 14" cx="1.5" cy="1.5" r="1.5" transform="translate(0.461)" fill="#c2e0ff"/>
      <circle id="Ellipse_25" data-name="Ellipse 25" cx="1.5" cy="1.5" r="1.5" transform="translate(0.461 5)" fill="#c2e0ff"/>
      <circle id="Ellipse_31" data-name="Ellipse 31" cx="1.5" cy="1.5" r="1.5" transform="translate(0.461 10)" fill="#c2e0ff"/>
      <circle id="Ellipse_15" data-name="Ellipse 15" cx="1.5" cy="1.5" r="1.5" transform="translate(6.461)" fill="#c2e0ff"/>
      <circle id="Ellipse_24" data-name="Ellipse 24" cx="1.5" cy="1.5" r="1.5" transform="translate(6.461 5)" fill="#c2e0ff"/>
      <circle id="Ellipse_30" data-name="Ellipse 30" cx="1.5" cy="1.5" r="1.5" transform="translate(6.461 10)" fill="#c2e0ff"/>
      <circle id="Ellipse_16" data-name="Ellipse 16" cx="1.5" cy="1.5" r="1.5" transform="translate(12.461)" fill="#c2e0ff"/>
      <circle id="Ellipse_23" data-name="Ellipse 23" cx="1.5" cy="1.5" r="1.5" transform="translate(12.461 5)" fill="#c2e0ff"/>
      <circle id="Ellipse_29" data-name="Ellipse 29" cx="1.5" cy="1.5" r="1.5" transform="translate(12.461 10)" fill="#c2e0ff"/>
      <circle id="Ellipse_17" data-name="Ellipse 17" cx="1.5" cy="1.5" r="1.5" transform="translate(17.461)" fill="#c2e0ff"/>
      <circle id="Ellipse_22" data-name="Ellipse 22" cx="1.5" cy="1.5" r="1.5" transform="translate(17.461 5)" fill="#c2e0ff"/>
      <circle id="Ellipse_28" data-name="Ellipse 28" cx="1.5" cy="1.5" r="1.5" transform="translate(17.461 10)" fill="#c2e0ff"/>
      <circle id="Ellipse_18" data-name="Ellipse 18" cx="1.5" cy="1.5" r="1.5" transform="translate(23.461)" fill="#c2e0ff"/>
      <circle id="Ellipse_21" data-name="Ellipse 21" cx="1.5" cy="1.5" r="1.5" transform="translate(23.461 5)" fill="#c2e0ff"/>
      <circle id="Ellipse_27" data-name="Ellipse 27" cx="1.5" cy="1.5" r="1.5" transform="translate(23.461 10)" fill="#c2e0ff"/>
      <circle id="Ellipse_19" data-name="Ellipse 19" cx="1.5" cy="1.5" r="1.5" transform="translate(28.461)" fill="#c2e0ff"/>
      <circle id="Ellipse_20" data-name="Ellipse 20" cx="1.5" cy="1.5" r="1.5" transform="translate(28.461 5)" fill="#c2e0ff"/>
      <circle id="Ellipse_26" data-name="Ellipse 26" cx="1.5" cy="1.5" r="1.5" transform="translate(28.461 10)" fill="#c2e0ff"/>
    </g>
    <g id="Mask_Group_270" data-name="Mask Group 270" transform="translate(111)" clip-path="url(#clip-path)">
      <g id="Group_440" data-name="Group 440" transform="translate(52.485 18.352) rotate(13)" opacity="0.2">
        <path id="Path_368" data-name="Path 368" d="M51.05,0C40.273,7.185,21.156-6.287,22.7,9.366S-1.938,17.064.115,26.558,7.3,40.8,13.073,49.01s-2.823,22.324.9,30.022,39.517,25.275,42.083,14.626" fill="none" stroke="#007bff" stroke-width="1"/>
        <path id="Path_369" data-name="Path 369" d="M51.05,0C40.273,7.185,21.156-6.287,22.7,9.366S-1.938,17.064.115,26.558,7.3,40.8,13.073,49.01s-2.823,22.324.9,30.022,39.517,25.275,42.083,14.626" transform="translate(5.508)" fill="none" stroke="#007bff" stroke-width="1"/>
        <path id="Path_370" data-name="Path 370" d="M51.05,0C40.273,7.185,21.156-6.287,22.7,9.366S-1.938,17.064.115,26.558,7.3,40.8,13.073,49.01s-2.823,22.324.9,30.022,39.517,25.275,42.083,14.626" transform="translate(11.799)" fill="none" stroke="#007bff" stroke-width="1"/>
        <path id="Path_371" data-name="Path 371" d="M51.05,0C40.273,7.185,21.156-6.287,22.7,9.366S-1.938,17.064.115,26.558,7.3,40.8,13.073,49.01s-2.823,22.324.9,30.022,39.517,25.275,42.083,14.626" transform="translate(18.601)" fill="none" stroke="#007bff" stroke-width="1"/>
        <path id="Path_372" data-name="Path 372" d="M51.05,0C40.273,7.185,21.156-6.287,22.7,9.366S-1.938,17.064.115,26.558,7.3,40.8,13.073,49.01s-2.823,22.324.9,30.022,39.517,25.275,42.083,14.626" transform="translate(24.357)" fill="none" stroke="#007bff" stroke-width="1"/>
        <path id="Path_373" data-name="Path 373" d="M51.05,0C40.273,7.185,21.156-6.287,22.7,9.366S-1.938,17.064.115,26.558,7.3,40.8,13.073,49.01s-2.823,22.324.9,30.022,39.517,25.275,42.083,14.626" transform="translate(28.027)" fill="none" stroke="#007bff" stroke-width="1"/>
      </g>
    </g>
  </g>
</svg>
