<svg xmlns="http://www.w3.org/2000/svg" xmlns:xlink="http://www.w3.org/1999/xlink" width="197" height="223" viewBox="0 0 197 223">
  <defs>
    <filter id="Rectangle_93" x="-15" y="92" width="227" height="149" filterUnits="userSpaceOnUse">
      <feOffset dy="3" input="SourceAlpha"/>
      <feGaussianBlur stdDeviation="5" result="blur"/>
      <feFlood flood-opacity="0.102"/>
      <feComposite operator="in" in2="blur"/>
      <feComposite in="SourceGraphic"/>
    </filter>
    <clipPath id="clip-path">
      <g transform="matrix(1, 0, 0, 1, 0, 0)" filter="url(#Rectangle_93)">
        <path id="Rectangle_93-2" data-name="Rectangle 93" d="M40,0H197a0,0,0,0,1,0,0V79a40,40,0,0,1-40,40H40A40,40,0,0,1,0,79V40A40,40,0,0,1,40,0Z" transform="translate(-0.23)" fill="#fff"/>
      </g>
    </clipPath>
  </defs>
  <g id="Group_553" data-name="Group 553" transform="translate(-461 -9)">
    <g id="Rectangle_43" data-name="Rectangle 43" transform="translate(564 9)" fill="none" stroke="#7dccd8" stroke-width="1">
      <rect width="6" height="6" rx="3" stroke="none"/>
      <rect x="0.5" y="0.5" width="5" height="5" rx="2.5" fill="none"/>
    </g>
    <g id="Rectangle_44" data-name="Rectangle 44" transform="translate(557 23)" fill="none" stroke="#7dccd8" stroke-width="1">
      <rect width="4" height="4" rx="2" stroke="none"/>
      <rect x="0.5" y="0.5" width="3" height="3" rx="1.5" fill="none"/>
    </g>
    <g id="Rectangle_45" data-name="Rectangle 45" transform="translate(486 114)" fill="none" stroke="#7dccd8" stroke-width="1">
      <rect width="4" height="4" rx="2" stroke="none"/>
      <rect x="0.5" y="0.5" width="3" height="3" rx="1.5" fill="none"/>
    </g>
    <rect id="Rectangle_47" data-name="Rectangle 47" width="13" height="13" rx="6.5" transform="translate(518 211)" fill="#7dccd8"/>
    <g id="Group_431" data-name="Group 431" transform="translate(627.145 74) rotate(90)">
      <circle id="Ellipse_14" data-name="Ellipse 14" cx="1.5" cy="1.5" r="1.5" transform="translate(0 0.145)" fill="#7dccd8"/>
      <circle id="Ellipse_25" data-name="Ellipse 25" cx="1.5" cy="1.5" r="1.5" transform="translate(0 5.145)" fill="#7dccd8"/>
      <circle id="Ellipse_31" data-name="Ellipse 31" cx="1.5" cy="1.5" r="1.5" transform="translate(0 10.145)" fill="#7dccd8"/>
      <circle id="Ellipse_15" data-name="Ellipse 15" cx="1.5" cy="1.5" r="1.5" transform="translate(6 0.145)" fill="#7dccd8"/>
      <circle id="Ellipse_24" data-name="Ellipse 24" cx="1.5" cy="1.5" r="1.5" transform="translate(6 5.145)" fill="#7dccd8"/>
      <circle id="Ellipse_30" data-name="Ellipse 30" cx="1.5" cy="1.5" r="1.5" transform="translate(6 10.145)" fill="#7dccd8"/>
      <circle id="Ellipse_16" data-name="Ellipse 16" cx="1.5" cy="1.5" r="1.5" transform="translate(12 0.145)" fill="#7dccd8"/>
      <circle id="Ellipse_23" data-name="Ellipse 23" cx="1.5" cy="1.5" r="1.5" transform="translate(12 5.145)" fill="#7dccd8"/>
      <circle id="Ellipse_29" data-name="Ellipse 29" cx="1.5" cy="1.5" r="1.5" transform="translate(12 10.145)" fill="#7dccd8"/>
      <circle id="Ellipse_17" data-name="Ellipse 17" cx="1.5" cy="1.5" r="1.5" transform="translate(17 0.145)" fill="#7dccd8"/>
      <circle id="Ellipse_22" data-name="Ellipse 22" cx="1.5" cy="1.5" r="1.5" transform="translate(17 5.145)" fill="#7dccd8"/>
      <circle id="Ellipse_28" data-name="Ellipse 28" cx="1.5" cy="1.5" r="1.5" transform="translate(17 10.145)" fill="#7dccd8"/>
      <circle id="Ellipse_18" data-name="Ellipse 18" cx="1.5" cy="1.5" r="1.5" transform="translate(23 0.145)" fill="#7dccd8"/>
      <circle id="Ellipse_21" data-name="Ellipse 21" cx="1.5" cy="1.5" r="1.5" transform="translate(23 5.145)" fill="#7dccd8"/>
      <circle id="Ellipse_27" data-name="Ellipse 27" cx="1.5" cy="1.5" r="1.5" transform="translate(23 10.145)" fill="#7dccd8"/>
      <circle id="Ellipse_19" data-name="Ellipse 19" cx="1.5" cy="1.5" r="1.5" transform="translate(28 0.145)" fill="#7dccd8"/>
      <circle id="Ellipse_20" data-name="Ellipse 20" cx="1.5" cy="1.5" r="1.5" transform="translate(28 5.145)" fill="#7dccd8"/>
      <circle id="Ellipse_26" data-name="Ellipse 26" cx="1.5" cy="1.5" r="1.5" transform="translate(28 10.145)" fill="#7dccd8"/>
    </g>
    <g id="Mask_Group_269" data-name="Mask Group 269" transform="translate(461.229 113)" clip-path="url(#clip-path)">
      <g id="Group_438" data-name="Group 438" transform="translate(113.233 7.098)" opacity="0.3">
        <path id="Path_360" data-name="Path 360" d="M4590.592,2828.046c0-38.246-23.163-23.163-9.7-49.558s30.7-37.169,19.931-56.561,8.619-29.088,23.7-18.315,47.4-3.771,60.332-5.387,29.627,12.389,33.4,27.472" transform="translate(-4576.688 -2698.098)" fill="none" stroke="#5db7c5" stroke-width="1"/>
        <path id="Path_361" data-name="Path 361" d="M4590.592,2828.046c0-38.246-23.163-23.163-9.7-49.558s30.7-37.169,19.931-56.561,8.619-29.088,23.7-18.315,47.4-3.771,60.332-5.387,29.627,12.389,33.4,27.472" transform="translate(-4571.688 -2692.098)" fill="none" stroke="#5db7c5" stroke-width="1"/>
        <path id="Path_362" data-name="Path 362" d="M4590.592,2828.046c0-38.246-23.163-23.163-9.7-49.558s30.7-37.169,19.931-56.561,8.619-29.088,23.7-18.315,47.4-3.771,60.332-5.387,29.627,12.389,33.4,27.472" transform="translate(-4564.161 -2684.098)" fill="none" stroke="#5db7c5" stroke-width="1"/>
        <path id="Path_363" data-name="Path 363" d="M4590.592,2828.046c0-38.246-23.163-23.163-9.7-49.558s30.7-37.169,19.931-56.561,8.619-29.088,23.7-18.315,47.4-3.771,60.332-5.387,29.627,12.389,33.4,27.472" transform="translate(-4556.161 -2676.098)" fill="none" stroke="#5db7c5" stroke-width="1"/>
        <path id="Path_364" data-name="Path 364" d="M4590.592,2828.046c0-38.246-23.163-23.163-9.7-49.558s30.7-37.169,19.931-56.561,8.619-29.088,23.7-18.315,47.4-3.771,60.332-5.387,29.627,12.389,33.4,27.472" transform="translate(-4548.161 -2670.196)" fill="none" stroke="#5db7c5" stroke-width="1"/>
        <path id="Path_365" data-name="Path 365" d="M4590.592,2828.046c0-38.246-23.163-23.163-9.7-49.558s30.7-37.169,19.931-56.561,8.619-29.088,23.7-18.315,47.4-3.771,60.332-5.387,29.627,12.389,33.4,27.472" transform="translate(-4541.161 -2663.196)" fill="none" stroke="#5db7c5" stroke-width="1"/>
        <path id="Path_366" data-name="Path 366" d="M4590.592,2828.046c0-38.246-23.163-23.163-9.7-49.558s30.7-37.169,19.931-56.561,8.619-29.088,23.7-18.315,47.4-3.771,60.332-5.387,29.627,12.389,33.4,27.472" transform="translate(-4531.946 -2656.196)" fill="none" stroke="#5db7c5" stroke-width="1"/>
        <path id="Path_367" data-name="Path 367" d="M4590.592,2828.046c0-38.246-23.163-23.163-9.7-49.558s30.7-37.169,19.931-56.561,8.619-29.088,23.7-18.315,47.4-3.771,60.332-5.387,29.627,12.389,33.4,27.472" transform="translate(-4522.946 -2651.17)" fill="none" stroke="#5db7c5" stroke-width="1"/>
      </g>
    </g>
  </g>
</svg>
