<svg xmlns="http://www.w3.org/2000/svg" width="20.281" height="21.787" viewBox="0 0 20.281 21.787"><defs><style>.a{fill:#007bff;}</style></defs><g transform="translate(-3162 -1911.213)"><g transform="translate(597.894 73.213)"><g transform="translate(2564.106 1838)"><g transform="translate(0 1.918)"><path class="a" d="M4921.875,1788.869h-13.47a3.41,3.41,0,0,1-3.406-3.406v-13.057a3.41,3.41,0,0,1,3.406-3.406h13.47a3.41,3.41,0,0,1,3.406,3.406v13.057A3.41,3.41,0,0,1,4921.875,1788.869Zm-13.47-18.837a2.377,2.377,0,0,0-2.374,2.374v13.057a2.377,2.377,0,0,0,2.374,2.374h13.47a2.377,2.377,0,0,0,2.374-2.374v-13.057a2.377,2.377,0,0,0-2.374-2.374Z" transform="translate(-4905 -1769)"/></g><g transform="translate(4.567 0)"><path class="a" d="M5082.516,1699.329a.516.516,0,0,1-.516-.516v-3.63a.516.516,0,1,1,1.032,0v3.63A.517.517,0,0,1,5082.516,1699.329Z" transform="translate(-5082 -1694.667)"/></g><g transform="translate(0.189 6.976)"><path class="a" d="M4931.911,1966.037h-19.06a.516.516,0,0,1,0-1.032h19.06a.516.516,0,0,1,0,1.032Z" transform="translate(-4912.335 -1965.005)"/></g><g transform="translate(14.777 0)"><path class="a" d="M5478.183,1699.329a.516.516,0,0,1-.516-.516v-3.63a.516.516,0,1,1,1.032,0v3.63A.517.517,0,0,1,5478.183,1699.329Z" transform="translate(-5477.667 -1694.667)"/></g></g></g><g transform="translate(3228 1853)"><g transform="translate(-62 68)"><path class="a" d="M-51.343,68h-9.714a.944.944,0,0,0-.943.943v5.571a.944.944,0,0,0,.943.943h4.028a.414.414,0,0,0,.414-.414.414.414,0,0,0-.414-.414h-4.028a.115.115,0,0,1-.115-.114V68.943a.115.115,0,0,1,.115-.115h9.714a.115.115,0,0,1,.115.115v5.571a.115.115,0,0,1-.115.114.414.414,0,0,0-.414.414.414.414,0,0,0,.414.414.944.944,0,0,0,.943-.943V68.943A.944.944,0,0,0-51.343,68Z" transform="translate(62 -68)"/><path class="a" d="M-45.929,74A2.074,2.074,0,0,0-48,76.071a2.052,2.052,0,0,0,.416,1.233s0,.007,0,.01v3.729a.414.414,0,0,0,.219.365.415.415,0,0,0,.425-.021l1.013-.675,1.013.675a.417.417,0,0,0,.23.07.415.415,0,0,0,.2-.049.414.414,0,0,0,.219-.365V77.314s0-.007,0-.01a2.052,2.052,0,0,0,.416-1.233A2.074,2.074,0,0,0-45.929,74Zm0,.829a1.244,1.244,0,0,1,1.243,1.243,1.244,1.244,0,0,1-1.243,1.243,1.244,1.244,0,0,1-1.243-1.243A1.244,1.244,0,0,1-45.929,74.829Zm.23,5.041a.413.413,0,0,0-.46,0l-.6.4v-2.3a2.051,2.051,0,0,0,.829.176,2.051,2.051,0,0,0,.829-.176v2.3Z" transform="translate(53.8 -71.514)"/><path class="a" d="M-55.1,72h-2.486a.414.414,0,0,0-.414.414.414.414,0,0,0,.414.414H-55.1a.414.414,0,0,0,.414-.414A.414.414,0,0,0-55.1,72Z" transform="translate(59.657 -70.343)"/><path class="a" d="M-55.1,76h-2.486a.414.414,0,0,0-.414.414.414.414,0,0,0,.414.414H-55.1a.414.414,0,0,0,.414-.414A.414.414,0,0,0-55.1,76Z" transform="translate(59.657 -72.686)"/></g></g></g></svg>