<svg xmlns="http://www.w3.org/2000/svg" width="20.083" height="20.082" viewBox="0 0 20.083 20.082"><defs><style>.a{fill:#007bff;stroke:#007bff;stroke-width:0.2px;}</style></defs><g transform="translate(-2475.311 -1818.9)"><g transform="translate(2475.411 1819)"><g transform="translate(0 0)"><path class="a" d="M6058.789,1714.548a9.916,9.916,0,1,1,3.87-.782A9.874,9.874,0,0,1,6058.789,1714.548Zm0-18.94a9,9,0,1,0,9,9A9.008,9.008,0,0,0,6058.789,1695.609Z" transform="translate(-6048.848 -1694.667)"/></g><g transform="translate(4.948 5.989)"><path class="a" d="M6262.582,1955.489l-3.46-3.8a.471.471,0,0,1,.7-.634l2.852,3.13,6.058-5.079a.471.471,0,0,1,.605.722Z" transform="translate(-6259 -1948.998)"/></g></g></g></svg>