<svg xmlns="http://www.w3.org/2000/svg" width="19.982" height="19.982" viewBox="0 0 19.982 19.982">
  <g id="Group_486" data-name="Group 486" transform="translate(0.05 0.05)">
    <g id="Group_472" data-name="Group 472" transform="translate(0 0)">
      <g id="Group_470" data-name="Group 470">
        <path id="Path_378" data-name="Path 378" d="M6058.789,1714.548a9.916,9.916,0,1,1,3.87-.782A9.874,9.874,0,0,1,6058.789,1714.548Zm0-18.94a9,9,0,1,0,9,9A9.008,9.008,0,0,0,6058.789,1695.609Z" transform="translate(-6048.848 -1694.667)" fill="#007bff" stroke="#007bff" stroke-width="0.1"/>
      </g>
      <g id="Group_471" data-name="Group 471" transform="translate(4.948 5.989)">
        <path id="Path_379" data-name="Path 379" d="M6262.582,1955.489l-3.46-3.8a.471.471,0,0,1,.7-.634l2.852,3.13,6.058-5.079a.471.471,0,0,1,.605.722Z" transform="translate(-6259 -1948.998)" fill="#007bff" stroke="#007bff" stroke-width="0.1"/>
      </g>
    </g>
  </g>
</svg>
