<svg xmlns="http://www.w3.org/2000/svg" width="27" height="27" viewBox="0 0 27 27"><defs><style>.a{fill:#fff;}</style></defs><path class="a" d="M25.5,27h-9A1.5,1.5,0,0,1,15,25.5v-12A1.5,1.5,0,0,1,16.5,12h9A1.5,1.5,0,0,1,27,13.5v12A1.5,1.5,0,0,1,25.5,27Zm-15,0h-9A1.5,1.5,0,0,1,0,25.5v-6A1.5,1.5,0,0,1,1.5,18h9A1.5,1.5,0,0,1,12,19.5v6A1.5,1.5,0,0,1,10.5,27Zm0-12h-9A1.5,1.5,0,0,1,0,13.5V1.5A1.5,1.5,0,0,1,1.5,0h9A1.5,1.5,0,0,1,12,1.5v12A1.5,1.5,0,0,1,10.5,15Zm15-6h-9A1.5,1.5,0,0,1,15,7.5v-6A1.5,1.5,0,0,1,16.5,0h9A1.5,1.5,0,0,1,27,1.5v6A1.5,1.5,0,0,1,25.5,9Z"/></svg>