<svg xmlns="http://www.w3.org/2000/svg" width="20.281" height="21.787" viewBox="0 0 20.281 21.787"><defs><style>.a{fill:#007bff;}</style></defs><g transform="translate(-2564.106 -1838)"><g transform="translate(2564.106 1838)"><g transform="translate(0 1.918)"><path class="a" d="M4921.875,1788.869h-13.47a3.41,3.41,0,0,1-3.406-3.406v-13.057a3.41,3.41,0,0,1,3.406-3.406h13.47a3.41,3.41,0,0,1,3.406,3.406v13.057A3.41,3.41,0,0,1,4921.875,1788.869Zm-13.47-18.837a2.377,2.377,0,0,0-2.374,2.374v13.057a2.377,2.377,0,0,0,2.374,2.374h13.47a2.377,2.377,0,0,0,2.374-2.374v-13.057a2.377,2.377,0,0,0-2.374-2.374Z" transform="translate(-4905 -1769)"/></g><g transform="translate(4.567 0)"><path class="a" d="M5082.516,1699.329a.516.516,0,0,1-.516-.516v-3.63a.516.516,0,1,1,1.032,0v3.63A.517.517,0,0,1,5082.516,1699.329Z" transform="translate(-5082 -1694.667)"/></g><g transform="translate(0.189 6.976)"><path class="a" d="M4931.911,1966.037h-19.06a.516.516,0,0,1,0-1.032h19.06a.516.516,0,0,1,0,1.032Z" transform="translate(-4912.335 -1965.005)"/></g><g transform="translate(14.777 0)"><path class="a" d="M5478.183,1699.329a.516.516,0,0,1-.516-.516v-3.63a.516.516,0,1,1,1.032,0v3.63A.517.517,0,0,1,5478.183,1699.329Z" transform="translate(-5477.667 -1694.667)"/></g><g transform="translate(3.595 10.33)"><rect class="a" width="2.907" height="2.907"/></g><g transform="translate(8.686 10.33)"><rect class="a" width="2.907" height="2.907"/></g><g transform="translate(13.777 10.33)"><rect class="a" width="2.907" height="2.907"/></g><g transform="translate(3.595 15.422)"><rect class="a" width="2.907" height="2.907"/></g><g transform="translate(8.686 15.422)"><rect class="a" width="2.907" height="2.907"/></g><g transform="translate(13.777 15.422)"><rect class="a" width="2.907" height="2.907"/></g></g></g></svg>