<svg xmlns="http://www.w3.org/2000/svg" width="26" height="28.001" viewBox="0 0 26 28.001"><defs><style>.a{fill:#02525e;}</style></defs><path class="a" d="M220,156H209v-3.382l1.946-.972a6.127,6.127,0,0,1,2.733-.646,3.312,3.312,0,0,1,3.163,2.3,1,1,0,0,0,1.9-.61,5.3,5.3,0,0,0-5.067-3.7,8.2,8.2,0,0,0-.94.055l-.726-2.177A6.486,6.486,0,0,0,215,141.369V138a.977.977,0,0,0-.052-.259L217,136.67V140a1,1,0,0,0,2,0v-5l0-.011s0-.008,0-.012a1,1,0,0,0-.065-.305.966.966,0,0,0-.087-.173c-.019-.029-.037-.058-.059-.086a.967.967,0,0,0-.49-.353l-9.189-3.837a2.854,2.854,0,0,0-2.218,0l-8.437,3.523a1.432,1.432,0,0,0-.107,2.583l8.319,4.343a2.885,2.885,0,0,0,2.668,0L213,138.758v2.611a4.492,4.492,0,0,1-3,4.282,6.894,6.894,0,0,1-2,.349,6.25,6.25,0,0,1-2.174-.388A4.465,4.465,0,0,1,203,141.393a1,1,0,0,0-2,0,6.531,6.531,0,0,0,2.981,5.5l-.72,2.159a8.2,8.2,0,0,0-.94-.055A5.327,5.327,0,0,0,197,154.321V156h-1a1,1,0,0,0,0,2h24a1,1,0,0,0,0-2Zm-11.592-17.1a.861.861,0,0,1-.816,0l-7.238-3.778,7.308-3.052a.871.871,0,0,1,.676,0l7.308,3.052Zm-2.59,8.809A8.241,8.241,0,0,0,208,148a8.759,8.759,0,0,0,2.175-.314l.617,1.853a7.912,7.912,0,0,0-.74.317L208,150.882l-2.052-1.026a7.912,7.912,0,0,0-.74-.317ZM199,154.321A3.325,3.325,0,0,1,202.321,151a6.127,6.127,0,0,1,2.733.646l1.946.972V156h-8Z" transform="translate(-195 -129.999)"/></svg>