<svg xmlns="http://www.w3.org/2000/svg" xmlns:xlink="http://www.w3.org/1999/xlink" width="183" height="232" viewBox="0 0 183 232">
  <defs>
    <filter id="Rectangle_94" x="82" y="-12" width="116" height="262" filterUnits="userSpaceOnUse">
      <feOffset dy="3" input="SourceAlpha"/>
      <feGaussianBlur stdDeviation="5" result="blur"/>
      <feFlood flood-opacity="0.102"/>
      <feComposite operator="in" in2="blur"/>
      <feComposite in="SourceGraphic"/>
    </filter>
    <clipPath id="clip-path">
      <g transform="matrix(1, 0, 0, 1, 0, 0)" filter="url(#Rectangle_94)">
        <path id="Rectangle_94-2" data-name="Rectangle 94" d="M0,0H46A40,40,0,0,1,86,40V192a40,40,0,0,1-40,40H40A40,40,0,0,1,0,192V0A0,0,0,0,1,0,0Z" transform="translate(0.16)" fill="#fff"/>
      </g>
    </clipPath>
  </defs>
  <g id="Group_554" data-name="Group 554" transform="translate(-14.155)">
    <g id="Rectangle_43" data-name="Rectangle 43" transform="translate(131.274 49.358) rotate(45)" fill="none" stroke="#ffa394" stroke-width="1">
      <rect width="6" height="6" rx="3" stroke="none"/>
      <rect x="0.5" y="0.5" width="5" height="5" rx="2.5" fill="none"/>
    </g>
    <g id="Rectangle_44" data-name="Rectangle 44" transform="translate(116.425 54.308) rotate(45)" fill="none" stroke="#ffa394" stroke-width="1">
      <rect width="4" height="4" rx="2" stroke="none"/>
      <rect x="0.5" y="0.5" width="3" height="3" rx="1.5" fill="none"/>
    </g>
    <g id="Rectangle_45" data-name="Rectangle 45" transform="translate(34.013 16.571) rotate(45)" fill="none" stroke="#ffa394" stroke-width="1">
      <rect width="4" height="4" rx="2" stroke="none"/>
      <rect x="0.5" y="0.5" width="3" height="3" rx="1.5" fill="none"/>
    </g>
    <rect id="Rectangle_47" data-name="Rectangle 47" width="13" height="13" rx="6.5" transform="translate(14.155 125)" fill="#ffa394"/>
    <g id="Group_431" data-name="Group 431" transform="translate(132 209) rotate(180)">
      <circle id="Ellipse_14" data-name="Ellipse 14" cx="1.5" cy="1.5" r="1.5" transform="translate(-0.155)" fill="#ffa394"/>
      <circle id="Ellipse_25" data-name="Ellipse 25" cx="1.5" cy="1.5" r="1.5" transform="translate(-0.155 5)" fill="#ffa394"/>
      <circle id="Ellipse_31" data-name="Ellipse 31" cx="1.5" cy="1.5" r="1.5" transform="translate(-0.155 10)" fill="#ffa394"/>
      <circle id="Ellipse_15" data-name="Ellipse 15" cx="1.5" cy="1.5" r="1.5" transform="translate(5.845)" fill="#ffa394"/>
      <circle id="Ellipse_24" data-name="Ellipse 24" cx="1.5" cy="1.5" r="1.5" transform="translate(5.845 5)" fill="#ffa394"/>
      <circle id="Ellipse_30" data-name="Ellipse 30" cx="1.5" cy="1.5" r="1.5" transform="translate(5.845 10)" fill="#ffa394"/>
      <circle id="Ellipse_16" data-name="Ellipse 16" cx="1.5" cy="1.5" r="1.5" transform="translate(11.845)" fill="#ffa394"/>
      <circle id="Ellipse_23" data-name="Ellipse 23" cx="1.5" cy="1.5" r="1.5" transform="translate(11.845 5)" fill="#ffa394"/>
      <circle id="Ellipse_29" data-name="Ellipse 29" cx="1.5" cy="1.5" r="1.5" transform="translate(11.845 10)" fill="#ffa394"/>
      <circle id="Ellipse_17" data-name="Ellipse 17" cx="1.5" cy="1.5" r="1.5" transform="translate(16.845)" fill="#ffa394"/>
      <circle id="Ellipse_22" data-name="Ellipse 22" cx="1.5" cy="1.5" r="1.5" transform="translate(16.845 5)" fill="#ffa394"/>
      <circle id="Ellipse_28" data-name="Ellipse 28" cx="1.5" cy="1.5" r="1.5" transform="translate(16.845 10)" fill="#ffa394"/>
      <circle id="Ellipse_18" data-name="Ellipse 18" cx="1.5" cy="1.5" r="1.5" transform="translate(22.845)" fill="#ffa394"/>
      <circle id="Ellipse_21" data-name="Ellipse 21" cx="1.5" cy="1.5" r="1.5" transform="translate(22.845 5)" fill="#ffa394"/>
      <circle id="Ellipse_27" data-name="Ellipse 27" cx="1.5" cy="1.5" r="1.5" transform="translate(22.845 10)" fill="#ffa394"/>
      <circle id="Ellipse_19" data-name="Ellipse 19" cx="1.5" cy="1.5" r="1.5" transform="translate(27.845)" fill="#ffa394"/>
      <circle id="Ellipse_20" data-name="Ellipse 20" cx="1.5" cy="1.5" r="1.5" transform="translate(27.845 5)" fill="#ffa394"/>
      <circle id="Ellipse_26" data-name="Ellipse 26" cx="1.5" cy="1.5" r="1.5" transform="translate(27.845 10)" fill="#ffa394"/>
    </g>
    <g id="Mask_Group_270" data-name="Mask Group 270" transform="translate(111)" clip-path="url(#clip-path)">
      <g id="Group_440" data-name="Group 440" transform="translate(9.747 -48.17)" opacity="0.3">
        <path id="Path_368" data-name="Path 368" d="M4128.465,2708.83c-20.6,13.73-57.129-12.014-54.187,17.9s-47.076,14.711-43.153,32.855,13.73,27.216,24.764,42.908-5.394,42.663,1.716,57.374,75.518,48.3,80.422,27.951" transform="translate(-4030.906 -2708.83)" fill="none" stroke="#ffa394" stroke-width="1"/>
        <path id="Path_369" data-name="Path 369" d="M4128.465,2708.83c-20.6,13.73-57.129-12.014-54.187,17.9s-47.076,14.711-43.153,32.855,13.73,27.216,24.764,42.908-5.394,42.663,1.716,57.374,75.518,48.3,80.422,27.951" transform="translate(-4020.379 -2708.83)" fill="none" stroke="#ffa394" stroke-width="1"/>
        <path id="Path_370" data-name="Path 370" d="M4128.465,2708.83c-20.6,13.73-57.129-12.014-54.187,17.9s-47.076,14.711-43.153,32.855,13.73,27.216,24.764,42.908-5.394,42.663,1.716,57.374,75.518,48.3,80.422,27.951" transform="translate(-4008.358 -2708.83)" fill="none" stroke="#ffa394" stroke-width="1"/>
        <path id="Path_371" data-name="Path 371" d="M4128.465,2708.83c-20.6,13.73-57.129-12.014-54.187,17.9s-47.076,14.711-43.153,32.855,13.73,27.216,24.764,42.908-5.394,42.663,1.716,57.374,75.518,48.3,80.422,27.951" transform="translate(-3995.358 -2708.83)" fill="none" stroke="#ffa394" stroke-width="1"/>
        <path id="Path_372" data-name="Path 372" d="M4128.465,2708.83c-20.6,13.73-57.129-12.014-54.187,17.9s-47.076,14.711-43.153,32.855,13.73,27.216,24.764,42.908-5.394,42.663,1.716,57.374,75.518,48.3,80.422,27.951" transform="translate(-3984.358 -2708.83)" fill="none" stroke="#ffa394" stroke-width="1"/>
        <path id="Path_373" data-name="Path 373" d="M4128.465,2708.83c-20.6,13.73-57.129-12.014-54.187,17.9s-47.076,14.711-43.153,32.855,13.73,27.216,24.764,42.908-5.394,42.663,1.716,57.374,75.518,48.3,80.422,27.951" transform="translate(-3977.345 -2708.83)" fill="none" stroke="#ffa394" stroke-width="1"/>
      </g>
    </g>
  </g>
</svg>
