<svg xmlns="http://www.w3.org/2000/svg" xmlns:xlink="http://www.w3.org/1999/xlink" width="197" height="224" viewBox="0 0 197 224">
  <defs>
    <filter id="Rectangle_92" x="-30" y="-27" width="257" height="190" filterUnits="userSpaceOnUse">
      <feOffset dy="3" input="SourceAlpha"/>
      <feGaussianBlur stdDeviation="10" result="blur"/>
      <feFlood flood-opacity="0.161"/>
      <feComposite operator="in" in2="blur"/>
      <feComposite in="SourceGraphic"/>
    </filter>
    <clipPath id="clip-path">
      <g transform="matrix(1, 0, 0, 1, 0, 0)" filter="url(#Rectangle_92)">
        <path id="Rectangle_92-2" data-name="Rectangle 92" d="M40,0H157a40,40,0,0,1,40,40v90a0,0,0,0,1,0,0H40A40,40,0,0,1,0,90V40A40,40,0,0,1,40,0Z" transform="translate(0.38)" fill="#fff"/>
      </g>
    </clipPath>
    <clipPath id="clip-path-2">
      <rect width="140.986" height="140.474" fill="none"/>
    </clipPath>
  </defs>
  <g id="Group_552" data-name="Group 552" transform="translate(-0.383)">
    <g id="Rectangle_43" data-name="Rectangle 43" transform="translate(125.383 118)" fill="none" stroke="#b3b5fe" stroke-width="1">
      <rect width="6" height="6" rx="3" stroke="none"/>
      <rect x="0.5" y="0.5" width="5" height="5" rx="2.5" fill="none"/>
    </g>
    <g id="Rectangle_44" data-name="Rectangle 44" transform="translate(118.383 132)" fill="none" stroke="#b3b5fe" stroke-width="1">
      <rect width="4" height="4" rx="2" stroke="none"/>
      <rect x="0.5" y="0.5" width="3" height="3" rx="1.5" fill="none"/>
    </g>
    <g id="Rectangle_45" data-name="Rectangle 45" transform="translate(171.383 168)" fill="none" stroke="#b3b5fe" stroke-width="1">
      <rect width="4" height="4" rx="2" stroke="none"/>
      <rect x="0.5" y="0.5" width="3" height="3" rx="1.5" fill="none"/>
    </g>
    <rect id="Rectangle_47" data-name="Rectangle 47" width="13" height="13" rx="6.5" transform="translate(122.383 211)" fill="#b3b5fe"/>
    <g id="Group_431" data-name="Group 431" transform="translate(5 111)">
      <circle id="Ellipse_14" data-name="Ellipse 14" cx="1.5" cy="1.5" r="1.5" transform="translate(0.383)" fill="#b3b5fe"/>
      <circle id="Ellipse_25" data-name="Ellipse 25" cx="1.5" cy="1.5" r="1.5" transform="translate(0.383 5)" fill="#b3b5fe"/>
      <circle id="Ellipse_31" data-name="Ellipse 31" cx="1.5" cy="1.5" r="1.5" transform="translate(0.383 10)" fill="#b3b5fe"/>
      <circle id="Ellipse_15" data-name="Ellipse 15" cx="1.5" cy="1.5" r="1.5" transform="translate(6.383)" fill="#b3b5fe"/>
      <circle id="Ellipse_24" data-name="Ellipse 24" cx="1.5" cy="1.5" r="1.5" transform="translate(6.383 5)" fill="#b3b5fe"/>
      <circle id="Ellipse_30" data-name="Ellipse 30" cx="1.5" cy="1.5" r="1.5" transform="translate(6.383 10)" fill="#b3b5fe"/>
      <circle id="Ellipse_16" data-name="Ellipse 16" cx="1.5" cy="1.5" r="1.5" transform="translate(12.383)" fill="#b3b5fe"/>
      <circle id="Ellipse_23" data-name="Ellipse 23" cx="1.5" cy="1.5" r="1.5" transform="translate(12.383 5)" fill="#b3b5fe"/>
      <circle id="Ellipse_29" data-name="Ellipse 29" cx="1.5" cy="1.5" r="1.5" transform="translate(12.383 10)" fill="#b3b5fe"/>
      <circle id="Ellipse_17" data-name="Ellipse 17" cx="1.5" cy="1.5" r="1.5" transform="translate(17.383)" fill="#b3b5fe"/>
      <circle id="Ellipse_22" data-name="Ellipse 22" cx="1.5" cy="1.5" r="1.5" transform="translate(17.383 5)" fill="#b3b5fe"/>
      <circle id="Ellipse_28" data-name="Ellipse 28" cx="1.5" cy="1.5" r="1.5" transform="translate(17.383 10)" fill="#b3b5fe"/>
      <circle id="Ellipse_18" data-name="Ellipse 18" cx="1.5" cy="1.5" r="1.5" transform="translate(23.383)" fill="#b3b5fe"/>
      <circle id="Ellipse_21" data-name="Ellipse 21" cx="1.5" cy="1.5" r="1.5" transform="translate(23.383 5)" fill="#b3b5fe"/>
      <circle id="Ellipse_27" data-name="Ellipse 27" cx="1.5" cy="1.5" r="1.5" transform="translate(23.383 10)" fill="#b3b5fe"/>
      <circle id="Ellipse_19" data-name="Ellipse 19" cx="1.5" cy="1.5" r="1.5" transform="translate(28.383)" fill="#b3b5fe"/>
      <circle id="Ellipse_20" data-name="Ellipse 20" cx="1.5" cy="1.5" r="1.5" transform="translate(28.383 5)" fill="#b3b5fe"/>
      <circle id="Ellipse_26" data-name="Ellipse 26" cx="1.5" cy="1.5" r="1.5" transform="translate(28.383 10)" fill="#b3b5fe"/>
    </g>
    <g id="Mask_Group_271" data-name="Mask Group 271" clip-path="url(#clip-path)">
      <g id="Group_517" data-name="Group 517" transform="translate(71.964 -122.722)">
        <g id="Group_436" data-name="Group 436">
          <g id="Repeat_Grid_1" data-name="Repeat Grid 1" transform="translate(0 100.771)" opacity="0.3" clip-path="url(#clip-path-2)">
            <g transform="translate(-4274.715 -2527.05)">
              <path id="Path_348" data-name="Path 348" d="M4269.207,2535.087s5.8,31.906,34.807,49.724,11.8,32.945,24.447,55.111,49.482,47.6,80.974,27.708" transform="translate(6 -7.948)" fill="none" stroke="#898cde" stroke-width="1"/>
            </g>
          </g>
          <path id="Path_349" data-name="Path 349" d="M4269.207,2535.087s5.8,31.906,34.807,49.724,11.8,32.945,24.447,55.111,49.482,47.6,80.974,27.708" transform="translate(-4265.715 -2438.087)" fill="none" stroke="#898cde" stroke-width="1" opacity="0.3"/>
          <path id="Path_350" data-name="Path 350" d="M4269.207,2535.087s5.8,31.906,34.807,49.724,11.8,32.945,24.447,55.111,49.482,47.6,80.974,27.708" transform="translate(-4262.715 -2443.087)" fill="none" stroke="#898cde" stroke-width="1" opacity="0.3"/>
          <path id="Path_351" data-name="Path 351" d="M4269.207,2535.087s5.8,31.906,34.807,49.724,11.8,32.945,24.447,55.111,49.482,47.6,80.974,27.708" transform="translate(-4260.921 -2452.087)" fill="none" stroke="#898cde" stroke-width="1" opacity="0.3"/>
          <path id="Path_352" data-name="Path 352" d="M4269.207,2535.087s5.8,31.906,34.807,49.724,11.8,32.945,24.447,55.111,49.482,47.6,80.974,27.708" transform="translate(-4258.921 -2462.087)" fill="none" stroke="#898cde" stroke-width="1" opacity="0.3"/>
          <path id="Path_353" data-name="Path 353" d="M4269.207,2535.087s5.8,31.906,34.807,49.724,11.8,32.945,24.447,55.111,49.482,47.6,80.974,27.708" transform="translate(-4255.921 -2474.087)" fill="none" stroke="#898cde" stroke-width="1" opacity="0.3"/>
          <path id="Path_354" data-name="Path 354" d="M4269.207,2535.087s5.8,31.906,34.807,49.724,11.8,32.945,24.447,55.111,49.482,47.6,80.974,27.708" transform="translate(-4252.921 -2485.087)" fill="none" stroke="#898cde" stroke-width="1" opacity="0.3"/>
          <path id="Path_355" data-name="Path 355" d="M4269.207,2535.087s5.8,31.906,34.807,49.724,11.8,32.945,24.447,55.111,49.482,47.6,80.974,27.708" transform="translate(-4249.921 -2496.087)" fill="none" stroke="#898cde" stroke-width="1" opacity="0.3"/>
          <path id="Path_356" data-name="Path 356" d="M4269.207,2535.087s5.8,31.906,34.807,49.724,11.8,32.945,24.447,55.111,49.482,47.6,80.974,27.708" transform="translate(-4247.921 -2511.087)" fill="none" stroke="#898cde" stroke-width="1" opacity="0.3"/>
          <path id="Path_357" data-name="Path 357" d="M4269.207,2535.087s5.8,31.906,34.807,49.724,11.8,32.945,24.447,55.111,49.482,47.6,80.974,27.708" transform="translate(-4247.921 -2525.087)" fill="none" stroke="#898cde" stroke-width="1" opacity="0.3"/>
          <path id="Path_358" data-name="Path 358" d="M4269.207,2535.087s5.8,31.906,34.807,49.724,11.8,32.945,24.447,55.111,49.482,47.6,80.974,27.708" transform="translate(-4245.921 -2535.087)" fill="none" stroke="#898cde" stroke-width="1" opacity="0.3"/>
        </g>
      </g>
    </g>
  </g>
</svg>
