<svg id="Group_487" data-name="Group 487" xmlns="http://www.w3.org/2000/svg" width="20.282" height="21.787" viewBox="0 0 20.282 21.787">
  <g id="Group_469" data-name="Group 469" transform="translate(0 0)">
    <g id="Group_459" data-name="Group 459" transform="translate(0 1.918)">
      <path id="Path_374" data-name="Path 374" d="M4921.877,1788.869h-13.47a3.41,3.41,0,0,1-3.406-3.406v-13.057a3.41,3.41,0,0,1,3.406-3.406h13.47a3.41,3.41,0,0,1,3.406,3.406v13.057A3.41,3.41,0,0,1,4921.877,1788.869Zm-13.47-18.837a2.377,2.377,0,0,0-2.374,2.374v13.057a2.377,2.377,0,0,0,2.374,2.374h13.47a2.377,2.377,0,0,0,2.374-2.374v-13.057a2.377,2.377,0,0,0-2.374-2.374Z" transform="translate(-4905.001 -1769)" fill="#007bff"/>
    </g>
    <g id="Group_460" data-name="Group 460" transform="translate(4.567)">
      <path id="Path_375" data-name="Path 375" d="M5082.516,1699.329a.516.516,0,0,1-.516-.516v-3.63a.516.516,0,1,1,1.032,0v3.63A.517.517,0,0,1,5082.516,1699.329Z" transform="translate(-5082 -1694.667)" fill="#007bff"/>
    </g>
    <g id="Group_461" data-name="Group 461" transform="translate(0.189 6.976)">
      <path id="Path_376" data-name="Path 376" d="M4931.911,1966.037h-19.06a.516.516,0,0,1,0-1.032h19.06a.516.516,0,0,1,0,1.032Z" transform="translate(-4912.335 -1965.005)" fill="#007bff"/>
    </g>
    <g id="Group_462" data-name="Group 462" transform="translate(14.777)">
      <path id="Path_377" data-name="Path 377" d="M5478.183,1699.329a.516.516,0,0,1-.516-.516v-3.63a.516.516,0,1,1,1.032,0v3.63A.517.517,0,0,1,5478.183,1699.329Z" transform="translate(-5477.667 -1694.667)" fill="#007bff"/>
    </g>
    <g id="Group_463" data-name="Group 463" transform="translate(3.595 10.33)">
      <rect id="Rectangle_105" data-name="Rectangle 105" width="2.907" height="2.907" fill="#007bff"/>
    </g>
    <g id="Group_464" data-name="Group 464" transform="translate(8.686 10.33)">
      <rect id="Rectangle_106" data-name="Rectangle 106" width="2.907" height="2.907" fill="#007bff"/>
    </g>
    <g id="Group_465" data-name="Group 465" transform="translate(13.777 10.33)">
      <rect id="Rectangle_107" data-name="Rectangle 107" width="2.907" height="2.907" fill="#007bff"/>
    </g>
    <g id="Group_466" data-name="Group 466" transform="translate(3.595 15.422)">
      <rect id="Rectangle_108" data-name="Rectangle 108" width="2.907" height="2.907" fill="#007bff"/>
    </g>
    <g id="Group_467" data-name="Group 467" transform="translate(8.686 15.422)">
      <rect id="Rectangle_109" data-name="Rectangle 109" width="2.907" height="2.907" fill="#007bff"/>
    </g>
    <g id="Group_468" data-name="Group 468" transform="translate(13.777 15.422)">
      <rect id="Rectangle_110" data-name="Rectangle 110" width="2.907" height="2.907" fill="#007bff"/>
    </g>
  </g>
</svg>
