<svg xmlns="http://www.w3.org/2000/svg" width="25" height="28" viewBox="0 0 25 28"><defs><style>.a{fill:#cf4460;}</style></defs><path class="a" d="M27,10a1,1,0,0,0,1-1V5.259A3.263,3.263,0,0,0,24.741,2H8.259A3.263,3.263,0,0,0,5,5.259V9H4a1,1,0,0,0,0,2H5v4H4a1,1,0,0,0,0,2H5v4H4a1,1,0,0,0,0,2H5v3.741A3.263,3.263,0,0,0,8.259,30H24.741A3.263,3.263,0,0,0,28,26.741V14a1,1,0,0,0-2,0V26.741A1.259,1.259,0,0,1,24.741,28H8.259A1.259,1.259,0,0,1,7,26.741V23H8a1,1,0,0,0,0-2H7V17H8a1,1,0,0,0,0-2H7V11H8A1,1,0,0,0,8,9H7V5.259A1.259,1.259,0,0,1,8.259,4H11V24a1,1,0,0,0,2,0V4H24.741A1.259,1.259,0,0,1,26,5.259V9A1,1,0,0,0,27,10Z" transform="translate(-3 -2)"/><path class="a" d="M23,9H16a1,1,0,0,0,0,2h7a1,1,0,0,0,0-2Z" transform="translate(-3 -2)"/><path class="a" d="M23,15H16a1,1,0,0,0,0,2h7a1,1,0,0,0,0-2Z" transform="translate(-3 -2)"/></svg>