<svg xmlns="http://www.w3.org/2000/svg" width="26.32" height="25.588" viewBox="0 0 26.32 25.588"><defs><style>.a{fill:none;}.b,.c{stroke:none;}.c{fill:#4aac4e;}</style></defs><g class="a" transform="translate(0 10) rotate(-30)"><path class="b" d="M8.252,3.147a2,2,0,0,1,3.5,0l6.6,11.882A2,2,0,0,1,16.6,18H3.4a2,2,0,0,1-1.748-2.971Z"/><path class="c" d="M 9.999995231628418 4.118244171142578 C 9.999993324279785 4.118247032165527 9.999991416931152 4.118250846862793 9.999990463256836 4.118253707885742 L 3.399021148681641 16.00000381469727 C 3.399019241333008 16.0000057220459 3.399026870727539 16.00000381469727 3.399030685424805 16.00000381469727 L 16.6009693145752 16.00000381469727 L 10 4.118253707885742 C 9.999998092651367 4.118250846862793 9.999996185302734 4.118247032165527 9.999995231628418 4.118244171142578 M 9.999995231628418 2.118247985839844 C 10.68365001678467 2.118247985839844 11.36730480194092 2.461153030395508 11.74831008911133 3.146963119506836 L 18.34927940368652 15.02871322631836 C 19.08987998962402 16.36177444458008 18.12594032287598 18.00000381469727 16.6009693145752 18.00000381469727 L 3.399030685424805 18.00000381469727 C 1.874059677124023 18.00000381469727 0.9101200103759766 16.36177444458008 1.65070915222168 15.02871322631836 L 8.251680374145508 3.146963119506836 C 8.632684707641602 2.461153030395508 9.316340446472168 2.118247985839844 9.999995231628418 2.118247985839844 Z"/></g></svg>