<svg xmlns="http://www.w3.org/2000/svg" xmlns:xlink="http://www.w3.org/1999/xlink" width="169" height="232" viewBox="0 0 169 232">
  <defs>
    <filter id="Rectangle_91" x="46" y="-27" width="153" height="292" filterUnits="userSpaceOnUse">
      <feOffset dy="3" input="SourceAlpha"/>
      <feGaussianBlur stdDeviation="10" result="blur"/>
      <feFlood flood-opacity="0.161"/>
      <feComposite operator="in" in2="blur"/>
      <feComposite in="SourceGraphic"/>
    </filter>
    <clipPath id="clip-path">
      <g transform="matrix(1, 0, 0, 1, 0, 0)" filter="url(#Rectangle_91)">
        <rect id="Rectangle_91-2" data-name="Rectangle 91" width="93" height="232" rx="40" fill="#fff"/>
      </g>
    </clipPath>
  </defs>
  <g id="Group_551" data-name="Group 551" transform="translate(-28)">
    <g id="Rectangle_43" data-name="Rectangle 43" transform="translate(39 107)" fill="none" stroke="#ffc8d3" stroke-width="1">
      <rect width="6" height="6" rx="3" stroke="none"/>
      <rect x="0.5" y="0.5" width="5" height="5" rx="2.5" fill="none"/>
    </g>
    <g id="Rectangle_44" data-name="Rectangle 44" transform="translate(32 122)" fill="none" stroke="#ffc8d3" stroke-width="1">
      <rect width="4" height="4" rx="2" stroke="none"/>
      <rect x="0.5" y="0.5" width="3" height="3" rx="1.5" fill="none"/>
    </g>
    <rect id="Rectangle_45" data-name="Rectangle 45" width="4" height="4" rx="2" transform="translate(28 19)" fill="#ffc8d3"/>
    <rect id="Rectangle_47" data-name="Rectangle 47" width="13" height="13" rx="6.5" transform="translate(148 189)" fill="#ffc8d3"/>
    <g id="Group_431" data-name="Group 431" transform="translate(136 14)">
      <circle id="Ellipse_14" data-name="Ellipse 14" cx="1.5" cy="1.5" r="1.5" fill="#ffc8d3"/>
      <circle id="Ellipse_25" data-name="Ellipse 25" cx="1.5" cy="1.5" r="1.5" transform="translate(0 5)" fill="#ffc8d3"/>
      <circle id="Ellipse_31" data-name="Ellipse 31" cx="1.5" cy="1.5" r="1.5" transform="translate(0 10)" fill="#ffc8d3"/>
      <circle id="Ellipse_15" data-name="Ellipse 15" cx="1.5" cy="1.5" r="1.5" transform="translate(6)" fill="#ffc8d3"/>
      <circle id="Ellipse_24" data-name="Ellipse 24" cx="1.5" cy="1.5" r="1.5" transform="translate(6 5)" fill="#ffc8d3"/>
      <circle id="Ellipse_30" data-name="Ellipse 30" cx="1.5" cy="1.5" r="1.5" transform="translate(6 10)" fill="#ffc8d3"/>
      <circle id="Ellipse_16" data-name="Ellipse 16" cx="1.5" cy="1.5" r="1.5" transform="translate(12)" fill="#ffc8d3"/>
      <circle id="Ellipse_23" data-name="Ellipse 23" cx="1.5" cy="1.5" r="1.5" transform="translate(12 5)" fill="#ffc8d3"/>
      <circle id="Ellipse_29" data-name="Ellipse 29" cx="1.5" cy="1.5" r="1.5" transform="translate(12 10)" fill="#ffc8d3"/>
      <circle id="Ellipse_17" data-name="Ellipse 17" cx="1.5" cy="1.5" r="1.5" transform="translate(17)" fill="#ffc8d3"/>
      <circle id="Ellipse_22" data-name="Ellipse 22" cx="1.5" cy="1.5" r="1.5" transform="translate(17 5)" fill="#ffc8d3"/>
      <circle id="Ellipse_28" data-name="Ellipse 28" cx="1.5" cy="1.5" r="1.5" transform="translate(17 10)" fill="#ffc8d3"/>
      <circle id="Ellipse_18" data-name="Ellipse 18" cx="1.5" cy="1.5" r="1.5" transform="translate(23)" fill="#ffc8d3"/>
      <circle id="Ellipse_21" data-name="Ellipse 21" cx="1.5" cy="1.5" r="1.5" transform="translate(23 5)" fill="#ffc8d3"/>
      <circle id="Ellipse_27" data-name="Ellipse 27" cx="1.5" cy="1.5" r="1.5" transform="translate(23 10)" fill="#ffc8d3"/>
      <circle id="Ellipse_19" data-name="Ellipse 19" cx="1.5" cy="1.5" r="1.5" transform="translate(28)" fill="#ffc8d3"/>
      <circle id="Ellipse_20" data-name="Ellipse 20" cx="1.5" cy="1.5" r="1.5" transform="translate(28 5)" fill="#ffc8d3"/>
      <circle id="Ellipse_26" data-name="Ellipse 26" cx="1.5" cy="1.5" r="1.5" transform="translate(28 10)" fill="#ffc8d3"/>
    </g>
    <g id="Mask_Group_267" data-name="Mask Group 267" transform="translate(104)" clip-path="url(#clip-path)">
      <g id="Group_433" data-name="Group 433" transform="translate(-30.934 -0.833)" opacity="0.34">
        <g id="Group_432" data-name="Group 432">
          <path id="Path_336" data-name="Path 336" d="M172.661.519S74.3-5.826,85.52,25.862-45.191,19.92,14.883,70.753s49.511,94.4,96.383,63.375,58.094-35.648,89.121-45.551" transform="translate(61.076 0) rotate(25)" fill="none" stroke="#efb7c3" stroke-width="1"/>
          <path id="Path_337" data-name="Path 337" d="M154.383.464s-87.95-5.673-77.916,22.66S-40.407,17.812,13.308,63.263s44.27,84.409,86.18,56.666S151.432,88.054,179.174,79.2" transform="translate(67.456 11.416) rotate(25)" fill="none" stroke="#efb7c3" stroke-width="1"/>
          <path id="Path_338" data-name="Path 338" d="M133.735.4S57.547-4.512,66.24,20.031-35,15.429,11.528,54.8s38.349,73.12,74.654,49.087,45-27.611,69.03-35.281" transform="translate(74.663 24.311) rotate(25)" fill="none" stroke="#efb7c3" stroke-width="1"/>
          <path id="Path_339" data-name="Path 339" d="M116.018.349S49.923-3.914,57.464,17.378-30.365,13.385,10,47.542,43.27,110.975,74.764,90.126,113.8,66.172,134.648,59.519" transform="translate(80.847 35.376) rotate(25)" fill="none" stroke="#efb7c3" stroke-width="1"/>
          <path id="Path_340" data-name="Path 340" d="M99.216.3S42.694-3.348,49.142,14.861s-75.111-3.414-40.59,25.8S37,94.9,63.937,77.074,97.32,56.59,115.149,50.9" transform="translate(86.712 45.869) rotate(25)" fill="none" stroke="#efb7c3" stroke-width="1"/>
          <path id="Path_341" data-name="Path 341" d="M83.571.251S35.961-2.82,41.394,12.518-21.874,9.642,7.2,34.246,31.169,79.939,53.855,64.921,81.974,47.666,96.992,42.873" transform="translate(92.173 55.64) rotate(25)" fill="none" stroke="#efb7c3" stroke-width="1"/>
          <path id="Path_342" data-name="Path 342" d="M67.482.2S29.038-2.277,33.424,10.108-17.662,7.785,5.817,27.653s19.351,36.9,37.67,24.769,22.7-13.932,34.832-17.8" transform="translate(97.789 65.688) rotate(25)" fill="none" stroke="#efb7c3" stroke-width="1"/>
          <path id="Path_343" data-name="Path 343" d="M50.681.152S21.808-1.71,25.1,7.591-13.265,5.847,4.369,20.768,18.9,48.477,32.66,39.37,49.712,28.906,58.819,26" transform="translate(103.654 76.181) rotate(25)" fill="none" stroke="#efb7c3" stroke-width="1"/>
        </g>
        <path id="Path_344" data-name="Path 344" d="M38.547.116S16.587-1.3,19.092,5.774-10.089,4.447,3.323,15.8,14.377,36.871,24.84,29.944s12.969-7.959,19.9-10.169" transform="translate(107.889 83.759) rotate(25)" fill="none" stroke="#ffc8d3" stroke-width="1"/>
        <path id="Path_345" data-name="Path 345" d="M29.2.088S12.563-.985,14.461,4.373s-22.1-1-11.944,7.59,8.372,15.964,16.3,10.717,9.823-6.028,15.07-7.7" transform="translate(111.153 89.599) rotate(25)" fill="none" stroke="#ffc8d3" stroke-width="1"/>
        <path id="Path_346" data-name="Path 346" d="M16.219.049S6.979-.546,8.033,2.43-4.245,1.872,1.4,6.646s4.651,8.867,9.054,5.953S15.909,9.25,18.823,8.32" transform="translate(115.683 97.704) rotate(25)" fill="none" stroke="#ffc8d3" stroke-width="1"/>
        <path id="Path_347" data-name="Path 347" d="M7.434.022S3.2-.25,3.682,1.114-1.946.858.641,3.047s2.132,4.064,4.15,2.729A12.1,12.1,0,0,1,8.628,3.814" transform="translate(118.75 103.19) rotate(25)" fill="none" stroke="#ffc8d3" stroke-width="1"/>
      </g>
    </g>
  </g>
</svg>
