<svg xmlns="http://www.w3.org/2000/svg" width="18.093" height="17.598" viewBox="0 0 18.093 17.598"><defs><style>.a{fill:#ff0415;}</style></defs><path class="a" d="M-442.48,601.528a.882.882,0,0,0,.879-.854v-3.546a.882.882,0,0,0-.879-.854.882.882,0,0,0-.878.854v3.546A.883.883,0,0,0-442.48,601.528Zm5.474,0a.882.882,0,0,0,.878-.854v-3.546a.882.882,0,0,0-.878-.854.882.882,0,0,0-.879.854v3.546A.883.883,0,0,0-437.006,601.528Zm5.474-9.719h-4.527V590.3a2.175,2.175,0,0,0-2.3-2.035h-2.7a2.175,2.175,0,0,0-2.3,2.035v1.511h-4.6a.882.882,0,0,0-.879.854.882.882,0,0,0,.879.854h.879v9.719a2.673,2.673,0,0,0,2.7,2.626h9.123a2.673,2.673,0,0,0,2.7-2.626v-9.653h.879a.883.883,0,0,0,.879-.854A.7.7,0,0,0-431.532,591.809Zm-10-1.511c0-.131.2-.262.473-.262h2.7c.269,0,.472.131.472.262v1.511h-3.65Zm7.3,13a.883.883,0,0,1-.878.854H-444.3a.882.882,0,0,1-.878-.854v-9.719h10.948Z" transform="translate(448.833 -588.263)"/></svg>